<svg width="111" height="34" viewBox="0 0 111 34" fill="none" xmlns="http://www.w3.org/2000/svg">
<rect x="2.80005" y="2" width="28" height="28" rx="14" fill="#1275B1"/>
<path d="M13.4186 9.69215C13.4186 10.6267 12.6086 11.3843 11.6093 11.3843C10.6101 11.3843 9.80005 10.6267 9.80005 9.69215C9.80005 8.7576 10.6101 8 11.6093 8C12.6086 8 13.4186 8.7576 13.4186 9.69215Z" fill="white"/>
<path d="M10.0475 12.6281H13.1403V22H10.0475V12.6281Z" fill="white"/>
<path d="M18.1196 12.6281H15.0269V22H18.1196C18.1196 22 18.1196 19.0496 18.1196 17.2049C18.1196 16.0976 18.4977 14.9855 20.0062 14.9855C21.7111 14.9855 21.7008 16.4345 21.6929 17.5571C21.6825 19.0244 21.7073 20.5219 21.7073 22H24.8V17.0537C24.7739 13.8954 23.9509 12.4401 21.2433 12.4401C19.6354 12.4401 18.6388 13.1701 18.1196 13.8305V12.6281Z" fill="white"/>
<g filter="url(#filter0_d_1056_9946)">
<rect x="28.55" y="1.75" width="28.5" height="28.5" rx="14.25" fill="white" stroke="#EAECF0" stroke-width="0.5"/>
<path d="M46.926 11.2427L42.8439 14.4285L38.6685 11.2427V11.2436L38.6735 11.2479V15.7088L42.7968 18.9634L46.926 15.8345V11.2427Z" fill="#EA4335"/>
<path d="M47.9978 10.468L46.9258 11.2429V15.8347L50.2991 13.2447V11.6846C50.2991 11.6846 49.8896 9.45629 47.9978 10.468Z" fill="#FBBC05"/>
<path d="M46.9258 15.8347V21.7903H49.5113C49.5113 21.7903 50.247 21.7146 50.2999 20.876V13.2448L46.9258 15.8347Z" fill="#34A853"/>
<path d="M38.6737 21.7954V15.709L38.6685 15.7047L38.6737 21.7954Z" fill="#C5221F"/>
<path d="M38.6683 11.2441L37.6022 10.4735C35.7104 9.46186 35.3 11.6893 35.3 11.6893V13.2494L38.6683 15.705V11.2441Z" fill="#C5221F"/>
<path d="M38.6685 11.2438V15.7047L38.6737 15.709V11.2481L38.6685 11.2438Z" fill="#C5221F"/>
<path d="M35.3 13.2499V20.8811C35.3522 21.7206 36.0887 21.7955 36.0887 21.7955H38.6742L38.6683 15.7047L35.3 13.2499Z" fill="#4285F4"/>
</g>
<path d="M68.8 2C61.0782 2 54.8 8.27812 54.8 16C54.8 23.7219 61.0782 30 68.8 30C76.5219 30 82.8 23.7219 82.8 16C82.8 8.27812 76.5219 2 68.8 2Z" fill="url(#paint0_radial_1056_9946)"/>
<path d="M73.3204 15.9411C71.3984 15.9411 69.8406 17.5212 69.8406 19.4704C69.8406 21.4198 71.3984 23 73.3204 23C75.2421 23 76.8 21.4198 76.8 19.4704C76.8 17.5212 75.2421 15.9411 73.3204 15.9411ZM64.2798 15.9414C62.358 15.9414 60.8 17.5212 60.8 19.4706C60.8 21.4198 62.358 23 64.2798 23C66.2016 23 67.7596 21.4198 67.7596 19.4706C67.7596 17.5212 66.2016 15.9414 64.2798 15.9414ZM72.2797 11.5293C72.2797 13.4785 70.7219 15.059 68.8001 15.059C66.8782 15.059 65.3204 13.4785 65.3204 11.5293C65.3204 9.58021 66.8782 8 68.8001 8C70.7219 8 72.2797 9.58021 72.2797 11.5293Z" fill="white"/>
<path d="M94.8006 29.2482C87.4832 29.2482 81.55 23.3146 81.55 15.998C81.55 8.67946 87.4831 2.74817 94.8006 2.74817C102.118 2.74817 108.05 8.67939 108.05 15.998C108.05 23.3146 102.118 29.2482 94.8006 29.2482Z" fill="white" stroke="#306CFE" stroke-width="1.5"/>
<path d="M90.9524 18.3988V13.7521H92.0067V18.3988H90.9524ZM89.1562 16.6026V15.5484H93.8029V16.6026H89.1562ZM95.1484 18.2242V17.2338L98.066 12.624H98.8919V14.0342H98.3883L96.4242 17.1465V17.2002H100.497V18.2242H95.1484ZM98.4286 19.5001V17.9221L98.442 17.4789V12.624H99.6171V19.5001H98.4286Z" fill="#306CFE"/>
<defs>
<filter id="filter0_d_1056_9946" x="24.8" y="-1" width="36" height="36" filterUnits="userSpaceOnUse" color-interpolation-filters="sRGB">
<feFlood flood-opacity="0" result="BackgroundImageFix"/>
<feColorMatrix in="SourceAlpha" type="matrix" values="0 0 0 0 0 0 0 0 0 0 0 0 0 0 0 0 0 0 127 0" result="hardAlpha"/>
<feOffset dy="1"/>
<feGaussianBlur stdDeviation="1"/>
<feColorMatrix type="matrix" values="0 0 0 0 0.0627451 0 0 0 0 0.0941176 0 0 0 0 0.156863 0 0 0 0.05 0"/>
<feBlend mode="normal" in2="BackgroundImageFix" result="effect1_dropShadow_1056_9946"/>
<feBlend mode="normal" in="SourceGraphic" in2="effect1_dropShadow_1056_9946" result="shape"/>
</filter>
<radialGradient id="paint0_radial_1056_9946" cx="0" cy="0" r="1" gradientUnits="userSpaceOnUse" gradientTransform="translate(68.8 17.3026) scale(18.5537)">
<stop stop-color="#FFB900"/>
<stop offset="0.6" stop-color="#F95D8F"/>
<stop offset="0.9991" stop-color="#F95353"/>
</radialGradient>
</defs>
</svg>
